<?xml version="1.0" standalone="no"?>
<!DOCTYPE svg PUBLIC "-//W3C//DTD SVG 20010904//EN"
 "http://www.w3.org/TR/2001/REC-SVG-20010904/DTD/svg10.dtd">
<svg version="1.0" xmlns="http://www.w3.org/2000/svg"
 width="100.000000pt" height="100.000000pt" viewBox="0 0 100.000000 100.000000"
 preserveAspectRatio="xMidYMid meet">
<metadata>
Created by potrace 1.14, written by Peter Selinger 2001-2017
</metadata>
<g transform="translate(0.000000,100.000000) scale(0.100000,-0.100000)"
fill="#000000" stroke="none">
<path d="M170 872 c-27 -13 -36 -24 -38 -49 -4 -36 25 -97 60 -130 54 -51 153
-68 223 -39 41 18 46 47 16 111 -46 101 -171 153 -261 107z"/>
<path d="M640 768 c-60 -42 -92 -105 -66 -131 29 -29 92 -31 144 -5 76 37 118
123 73 148 -35 18 -115 12 -151 -12z"/>
<path d="M325 562 c-130 -2 -162 -5 -177 -19 -16 -14 -18 -36 -18 -203 0 -162
2 -189 17 -201 24 -20 682 -20 706 0 15 12 17 39 17 201 0 165 -2 189 -17 202
-20 18 -229 25 -528 20z"/>
</g>
</svg>
